<svg width="75" height="19" viewBox="0 0 94 19" fill="none" xmlns="http://www.w3.org/2000/svg">
<rect width="94" height="19" fill="black"/>
<path d="M4.272 18V17.616L6.768 16.632V3.48H3.144L1.344 7.248H0.96V2.16H15.6V7.248H15.216L13.416 3.48H9.792V16.632L12.264 17.616V18H4.272ZM17.4823 18V17.616L19.0423 16.848V2.736L17.5543 1.56V1.32L21.5863 -1.43051e-06H21.8263V8.64H21.9223C22.5143 8.064 23.0823 7.624 23.6263 7.32C24.1863 7.016 24.8183 6.864 25.5223 6.864C26.4823 6.864 27.2663 7.112 27.8743 7.608C28.4983 8.104 28.8103 8.824 28.8103 9.768V16.848L30.3703 17.616V18H24.6103V17.616L26.0263 16.896V10.8C26.0263 10.192 25.8423 9.728 25.4743 9.408C25.1063 9.072 24.6263 8.904 24.0343 8.904C23.6663 8.904 23.2743 8.968 22.8583 9.096C22.4423 9.224 22.0983 9.4 21.8263 9.624V16.896L23.2423 17.616V18H17.4823ZM37.2713 18.24C35.6713 18.24 34.3993 17.768 33.4553 16.824C32.5273 15.88 32.0633 14.624 32.0633 13.056C32.0633 11.84 32.3193 10.768 32.8313 9.84C33.3433 8.912 34.0153 8.184 34.8473 7.656C35.6953 7.128 36.6313 6.864 37.6553 6.864C38.9353 6.864 39.9353 7.304 40.6553 8.184C41.3753 9.064 41.7433 10.304 41.7593 11.904L41.6633 12.024H34.7513C34.7513 12.744 34.8793 13.408 35.1353 14.016C35.3913 14.608 35.8073 15.088 36.3833 15.456C36.9593 15.808 37.7193 15.984 38.6633 15.984C39.1113 15.984 39.5913 15.92 40.1033 15.792C40.6153 15.664 41.1513 15.448 41.7113 15.144H41.7833V15.48C41.3993 16.264 40.8153 16.92 40.0313 17.448C39.2473 17.976 38.3273 18.24 37.2713 18.24ZM37.1753 7.944C36.5353 7.944 36.0073 8.208 35.5913 8.736C35.1753 9.264 34.9113 10 34.7993 10.944H39.4313C39.2873 9.84 39.0233 9.064 38.6393 8.616C38.2553 8.168 37.7673 7.944 37.1753 7.944Z" fill="#026BA7"/>
<path d="M55.2523 18.24C54.2283 18.24 53.3323 18.144 52.5643 17.952C51.8123 17.744 51.0603 17.448 50.3083 17.064L50.0683 13.056H50.5003L51.9643 15.816C52.9563 16.632 53.9963 17.04 55.0843 17.04C55.9803 17.04 56.7003 16.824 57.2443 16.392C57.7883 15.944 58.0603 15.312 58.0603 14.496C58.0603 13.888 57.9163 13.4 57.6283 13.032C57.3563 12.648 56.9323 12.304 56.3563 12C55.7803 11.68 55.0283 11.312 54.1003 10.896C52.9803 10.352 52.1163 9.768 51.5083 9.144C50.9003 8.504 50.5963 7.648 50.5963 6.576C50.5963 5.968 50.7483 5.384 51.0523 4.824C51.3563 4.264 51.7563 3.768 52.2523 3.336C52.7643 2.904 53.3323 2.56 53.9563 2.304C54.5963 2.048 55.2523 1.92 55.9243 1.92C56.7243 1.92 57.4683 2.016 58.1563 2.208C58.8603 2.384 59.5323 2.64 60.1723 2.976L60.4123 6.816H60.0043L58.5403 4.176C58.0763 3.824 57.6443 3.56 57.2443 3.384C56.8443 3.208 56.3883 3.12 55.8763 3.12C55.2043 3.12 54.6443 3.344 54.1963 3.792C53.7643 4.24 53.5483 4.808 53.5483 5.496C53.5483 6.216 53.7883 6.8 54.2683 7.248C54.7483 7.68 55.5483 8.16 56.6683 8.688C57.6443 9.136 58.4443 9.576 59.0683 10.008C59.6923 10.44 60.1563 10.928 60.4603 11.472C60.7643 12.016 60.9163 12.688 60.9163 13.488C60.9163 14.256 60.7483 14.936 60.4123 15.528C60.0923 16.104 59.6523 16.6 59.0923 17.016C58.5483 17.416 57.9403 17.72 57.2683 17.928C56.5963 18.136 55.9243 18.24 55.2523 18.24ZM67.4574 18.24C66.5934 18.24 65.8654 18.032 65.2734 17.616C64.6974 17.2 64.4094 16.616 64.4094 15.864V8.208H62.5854V7.968L64.7454 7.104L66.8574 4.464H67.1934V7.104H70.4574V8.208H67.1934V15.336C67.1934 15.736 67.3694 16.04 67.7214 16.248C68.0734 16.44 68.4974 16.536 68.9934 16.536C69.2974 16.536 69.5694 16.52 69.8094 16.488C70.0654 16.456 70.2974 16.416 70.5054 16.368L70.5774 16.392V16.728C70.3534 17.096 69.9614 17.44 69.4014 17.76C68.8414 18.08 68.1934 18.24 67.4574 18.24ZM74.8986 18.24C74.1306 18.24 73.4746 18.008 72.9306 17.544C72.4026 17.08 72.1466 16.424 72.1626 15.576C72.1786 14.744 72.4586 14.064 73.0026 13.536C73.5466 12.992 74.5546 12.544 76.0266 12.192L78.2826 11.64V10.056C78.2826 9.464 78.0826 8.984 77.6826 8.616C77.2826 8.232 76.8026 8.04 76.2426 8.04C75.6826 8.04 75.2906 8.176 75.0666 8.448C74.8426 8.704 74.7306 9.08 74.7306 9.576V10.512L74.6106 10.608H73.1706C72.9306 10.608 72.7626 10.56 72.6666 10.464C72.5706 10.368 72.5226 10.176 72.5226 9.888C72.5226 9.136 73.0026 8.472 73.9626 7.896C74.4746 7.576 74.9786 7.328 75.4746 7.152C75.9866 6.96 76.5226 6.864 77.0826 6.864C77.7866 6.864 78.4426 6.96 79.0506 7.152C79.6586 7.344 80.1466 7.648 80.5146 8.064C80.8826 8.48 81.0666 9.04 81.0666 9.744V16.296C81.2906 16.552 81.6986 16.68 82.2906 16.68H83.0826L83.1546 16.752V16.992C82.9626 17.312 82.6666 17.6 82.2666 17.856C81.8666 18.112 81.3546 18.24 80.7306 18.24C80.1226 18.24 79.6266 18.104 79.2426 17.832C78.8746 17.544 78.6106 17.16 78.4506 16.68H78.2826C77.8666 17.128 77.3706 17.504 76.7946 17.808C76.2186 18.096 75.5866 18.24 74.8986 18.24ZM74.8026 14.976C74.8026 15.488 74.9466 15.872 75.2346 16.128C75.5386 16.368 75.9546 16.488 76.4826 16.488C76.7866 16.488 77.0746 16.456 77.3466 16.392C77.6346 16.328 77.9466 16.224 78.2826 16.08V12.552C77.2906 12.744 76.5466 12.96 76.0506 13.2C75.5546 13.424 75.2186 13.68 75.0426 13.968C74.8826 14.256 74.8026 14.592 74.8026 14.976ZM84.3043 18V17.616L85.8643 16.848V9.696L84.3763 8.52V8.28L88.1683 6.864H88.3843L88.6003 8.976H88.7203C89.1043 8.368 89.4483 7.912 89.7523 7.608C90.0563 7.304 90.3443 7.104 90.6163 7.008C90.9043 6.912 91.1923 6.864 91.4803 6.864C91.6083 6.864 91.7523 6.888 91.9123 6.936C92.0723 6.984 92.2163 7.032 92.3443 7.08C92.8243 7.24 93.0643 7.464 93.0643 7.752C93.0643 7.88 93.0403 8.016 92.9923 8.16L92.4403 9.576H92.2723L91.5283 9.288C91.3043 9.208 91.1043 9.16 90.9283 9.144C90.7683 9.112 90.5843 9.096 90.3763 9.096C89.7043 9.096 89.1203 9.424 88.6243 10.08V16.848L90.4723 17.616V18H84.3043Z" fill="white"/>
</svg>
